<?xml version="1.0" encoding="utf-8"?>
<!-- Generator: Adobe Illustrator 19.0.1, SVG Export Plug-In . SVG Version: 6.00 Build 0)  -->
<svg version="1.1" id="Слой_1" xmlns="http://www.w3.org/2000/svg" xmlns:xlink="http://www.w3.org/1999/xlink" x="0px" y="0px"
	 viewBox="0 0 96 109" style="enable-background:new 0 0 96 109;" xml:space="preserve">
<style type="text/css">
	.st0{fill:#1E1E1E;}
</style>
<g>
	<g>
		<path class="st0" d="M48.8,7.8c8.8,0,16.8,3.6,22.6,9.4c5.8,5.8,9.4,13.8,9.4,22.6c0,8.8-3.6,16.8-9.4,22.6
			c-5.8,5.8-13.8,9.4-22.6,9.4c-8.8,0-16.8-3.6-22.6-9.4c-5.8-5.8-9.4-13.8-9.4-22.6c0-8.8,3.6-16.8,9.4-22.6
			C32,11.4,40,7.8,48.8,7.8L48.8,7.8z M53,43.3c0.2,0,0.4,0.1,0.5,0.1c2.2,0.7,3.4,2.3,3.9,4.2c0.2-0.3,0.5-0.5,0.8-0.8
			c0.3-0.2,0.6-0.5,0.9-0.8c1.7-1.7,2.1-3.3,1.7-4.5c-0.2-0.6-0.6-1.1-1.1-1.5c-0.5-0.3-1-0.5-1.6-0.5c-0.8,0.1-1.7,0.7-2.2,2.1
			l-2.3-0.8c0.9-2.4,2.6-3.5,4.3-3.6c1.1-0.1,2.2,0.3,3.1,0.9c0.9,0.6,1.6,1.6,2,2.7c0.3,0.9,0.3,1.9,0.1,3c0.8-0.3,1.7-0.5,2.6-0.6
			c0.2,0,0.4-0.1,0.6-0.1h0c1.7-0.3,3.2-1.1,4.3-2.2c1-1.1,1.5-2.5,1.2-4.2h0c0-0.2,0-0.3-0.1-0.4c-0.4-2.1-2.8-3.7-2.8-3.7l1.3-2
			c0,0,3.2,2.1,3.8,5.2c0,0.2,0.1,0.4,0.1,0.5v0c0.4,2.5-0.4,4.6-1.8,6.2c-0.8,0.9-1.9,1.7-3.1,2.2c0.5,0.4,0.9,0.8,1.3,1.4
			c0.6,0.8,0.9,1.8,1,2.8c0.2,2.2-0.7,4.6-3,5.9c-1.4,0.8-3,1.1-4.4,0.9c-1.5-0.2-3-0.9-4.3-2l1.6-1.8c0.9,0.8,2,1.3,3,1.4
			c1,0.1,2-0.1,2.9-0.6c1.4-0.8,1.9-2.2,1.8-3.5c-0.1-0.6-0.3-1.2-0.6-1.7c-0.3-0.5-0.8-0.9-1.4-1.2c-0.9-0.4-2.1-0.5-3.5,0
			c-1.6,0.6-3,1.5-4.1,2.8c-1.5,1.7-2.5,4.2-2.6,7.3c-0.2,4.3,2.7,7.2,5.4,9.9c2.7-1.4,5.2-3.2,7.3-5.4c5.4-5.4,8.7-12.8,8.7-20.9
			c0-8.2-3.3-15.6-8.7-20.9c-5.4-5.4-12.8-8.7-20.9-8.7c-8.2,0-15.6,3.3-20.9,8.7c-5.4,5.4-8.7,12.8-8.7,20.9
			c0,8.2,3.3,15.6,8.7,20.9c3,3,6.6,5.3,10.6,6.8c0.8-0.7,1.9-1.8,2.5-2.4c2-2.1,3.7-4.2,4.9-6.6c0.8-1.6,1.5-3.2,1.9-5.1
			c0.1-0.8,0.1-1.6-0.1-2.3c-0.2-0.7-0.5-1.4-1-2.2c-0.3-0.4-0.6-0.7-0.9-1c-1-0.9-2.4-1.4-3.7-1.4c-1.4,0-2.7,0.3-3.7,1
			c-0.3,0.2-0.6,0.5-0.9,0.8c-0.5,0.6-0.9,1.4-1.1,2.2c-0.1,0.7-0.1,1.5,0.2,2.1c0.6,1.3,1.7,1.7,2.8,1.6c0.5,0,1-0.2,1.5-0.5
			c0.4-0.2,0.7-0.5,0.9-0.9c0.3-0.5,0.2-1.2-0.4-2l1.9-1.5c1.4,1.7,1.4,3.3,0.6,4.7c-0.4,0.7-1.1,1.4-1.8,1.8
			c-0.7,0.4-1.6,0.7-2.5,0.8c-2,0.1-4-0.7-5.2-3c-0.5-1-0.6-2-0.5-3.1c-1.2,0.3-2.5,0.3-3.7,0.1c-1.5-0.3-3-1-4-2
			c-0.4-0.5-0.8-1-1-1.6l2.3-0.8c0.1,0.3,0.3,0.6,0.5,0.8c0.6,0.7,1.6,1.1,2.6,1.3c1.1,0.2,2.3,0.1,3.3-0.2c0.4-0.1,0.8-0.3,1.1-0.6
			c0.2-0.3,0.4-0.6,0.6-0.8c0.4-0.4,0.8-0.8,1.3-1.1c0.4-0.3,0.9-0.5,1.4-0.8c-0.5-0.5-1-1.2-1.5-2.3c-0.1-0.2-0.2-0.4-0.3-0.6
			c-0.5-1.2-1.1-2.6-2.6-3.3c-0.4-0.2-0.9-0.2-1.4,0c-0.4,0.2-0.7,0.4-1,0.8c-0.3,0.3-0.5,0.7-0.6,1.2c-0.1,0.6,0,1.2,0.5,1.8
			l-1.9,1.5c-1-1.2-1.2-2.5-1-3.7c0.2-0.8,0.5-1.6,1.1-2.2c0.5-0.6,1.2-1.1,1.9-1.5c1.1-0.5,2.3-0.5,3.4,0c0.9,0.5,1.6,1.1,2.1,1.7
			c0-0.1,0.1-0.1,0.1-0.2c0.8-1.2,2-2.1,3.6-2.6l0.7,2.3c-1,0.3-1.8,0.9-2.3,1.6c-0.4,0.6-0.5,1.4-0.3,2.3c0.9,2,1.7,2.2,3.4,2.5
			c0.5,0.1,1,0.2,1.6,0.4l0,0l0,0c1.2,0.3,2.3,0.9,3.3,1.8c0.3,0.3,0.6,0.6,0.8,0.9c0-0.5-0.1-1-0.2-1.5c0-0.2-0.1-0.3-0.1-0.5
			c-0.1-0.6-0.4-1.2-0.6-1.9c-0.3-0.8-0.6-1.7-0.8-2.7c-0.8-2-1.9-3.9-3.4-5.5c-0.1-0.1-0.2-0.2-0.3-0.3c-0.5-0.5-1.1-1-1.4-1.3l0,0
			c-1.2-0.9-2.6-1.6-4.1-1.9v0l0,0l0,0l0,0c-0.2,0-0.3-0.1-0.5-0.1c-0.2,0-0.3,0-0.5,0c-2.6-0.1-5.1,0.8-7.1,2.4
			c-2,1.6-3.3,3.9-3.6,6.5c0,0.2,0,0.3,0,0.5l-2.4-0.1c0-0.2,0-0.4,0-0.6c0.3-3.3,2-6.1,4.5-8.1c1.1-0.9,2.4-1.7,3.8-2.2
			c-1.4-0.8-2.2-1.9-2.5-3.1c-0.3-0.8-0.3-1.7-0.1-2.5c0.2-0.8,0.6-1.5,1.2-2.2c1.2-1.2,3-1.9,5.3-1.7l-0.3,2.4
			c-1.5-0.2-2.7,0.2-3.3,0.9c-0.3,0.3-0.5,0.7-0.6,1.1c-0.1,0.4-0.1,0.8,0,1.2c0.3,0.9,1.1,1.7,2.5,2.3c0.8,0.3,2.9,0.7,3.7,0.9
			c-0.6-1.2-0.6-2.4-0.2-3.5c0.2-0.7,0.6-1.3,1.1-1.8c0.5-0.5,1-0.9,1.6-1.2c1.5-0.7,3.4-0.7,5,0.7l-1.6,1.8
			c-0.8-0.7-1.7-0.7-2.5-0.4c-0.3,0.2-0.6,0.4-0.9,0.6c-0.2,0.3-0.4,0.6-0.5,0.9c-0.3,0.7-0.1,1.6,0.7,2.5c0.5,0.4,0.9,0.9,1.3,1.3
			c0.5,0.5,1,1.1,1.4,1.4l0.1,0.1c0.3,0.2,0.6,0.5,0.8,0.7c0.3,0.3,0.6,0.5,0.8,0.8c0.3,0.3,0.6,0.6,0.8,0.9c-0.1-0.9-0.1-1.7,0-2.5
			c0.1-1.9,0.6-3.8,1.6-6.3l0,0c0.1-0.3,0.2-0.6,0.4-0.8c0.2-0.4,0.3-0.9,0.5-1.3c0.4-1.1,0.3-2.2-0.2-3.2c-0.3-0.6-0.8-1.1-1.4-1.5
			c-0.6-0.4-1.2-0.6-1.9-0.7c-1.1-0.1-2.3,0.4-3.4,1.5l-1.7-1.7c1.7-1.7,3.5-2.3,5.3-2.2c1.1,0.1,2.2,0.5,3.1,1.1
			c0.9,0.6,1.7,1.4,2.2,2.4c0.3,0.5,0.5,1,0.6,1.6c0.2-0.1,0.4-0.3,0.5-0.4c1.4-1,2.9-1.7,4.5-1.9c1.6-0.3,3.2-0.1,4.6,0.4
			c1.4,0.5,2.6,1.4,3.5,2.7l-1.9,1.4c-0.7-0.9-1.5-1.5-2.4-1.9c-1-0.4-2.2-0.5-3.4-0.3c-1.2,0.2-2.4,0.7-3.5,1.5
			c-1.1,0.8-2.1,2-2.8,3.5l0,0c-1,2.7-1.6,4.5-1.7,6.3c-0.1,1.6,0.1,3.3,0.5,5.6c0.2-0.4,0.4-0.8,0.7-1.1c0.2-0.3,0.4-0.6,0.7-0.9
			l0,0l0,0c0-0.1,0.1-0.1,0.2-0.3l0,0c0.3-0.4,0.7-0.8,1.2-1.2c0.5-0.4,1.1-0.9,1.8-1.3c0.4-0.2,0.7-0.4,0.9-0.5l0,0l0,0l0,0l0,0
			l0.2-0.1l0,0c0.1-0.1,0.2-0.1,0.4-0.2c0.2-0.1,0.3-0.2,0.5-0.2v0c0.3-0.1,0.6-0.3,0.8-0.5c0.8-0.5,1.4-1.2,1.7-1.8
			c0.3-0.6,0.3-1.1,0-1.7c0-0.1-0.1-0.2-0.2-0.3c-0.3-0.4-0.6-0.7-0.9-0.8c-0.2-0.1-0.4,0-0.6,0c-0.2,0.1-0.4,0.2-0.6,0.4
			c-0.2,0.3-0.3,0.6-0.3,1l-2.4,0c0-1,0.3-1.9,0.9-2.6c0.4-0.5,1-0.9,1.6-1.1c0.7-0.2,1.4-0.3,2.1-0.1c0.8,0.2,1.6,0.8,2.3,1.7
			c0.1,0.2,0.2,0.4,0.3,0.6c0.6,1.2,0.6,2.5,0.1,3.6c3.3-1.1,6.7-2.6,6.1-6.4l2.4-0.3c0.7,5-2.6,7.2-6.2,8.5
			c0.7,0.3,1.4,0.7,2.1,1.1c1.7,1.2,3.1,2.8,3.8,4.6l-2.2,1c-0.6-1.4-1.7-2.7-3-3.6c-1.2-0.8-2.6-1.3-4-1.3c-0.5,0-1.2,0.1-2,0.2
			c-0.7,0.1-1.6,0.4-2.4,0.8c-1.2,0.8-2.4,1.8-3.2,2.9c-0.9,1.2-1.3,2.7-1.1,4.4c0.1,0.6,0.2,1.3,0.2,1.8h0c0.2,1.3,0.3,1.9,0.3,2.7
			c0.1,1.3,0.1,2.7,0,4.1c-0.3,3.4-1.2,6.3-2.6,8.9c-1.4,2.6-3.2,4.9-5.3,7.1c-0.4,0.4-1,1-1.6,1.6c1.5,0.4,3.1,0.7,4.6,0.9
			c2.5-2.2,4.1-4.2,5.4-6.4c1.3-2.4,2.3-5,3.4-8.5c0.1-0.4,0.2-0.8,0.3-1.2c0.4-1.5,0.6-3.2,0.2-4.7c-0.3-1.2-1-2.3-2.3-2.7
			c-0.1,0-0.2-0.1-0.3-0.1L53,43.3L53,43.3z M60.1,67.2c-2-2-4.1-4.3-5-7.2c-0.6,1.4-1.2,2.8-1.9,4c-1.1,1.9-2.4,3.6-4.1,5.4
			C53,69.4,56.7,68.6,60.1,67.2L60.1,67.2z"/>
	</g>
	<g>
		<g>
			<path class="st0" d="M11.1,82.1h5.7v18h3.3v-18h5.7v-2.9H11.1V82.1z M27.5,100.1h3.3V79.1h-3.3V100.1z M46.9,92.6L33.7,78.1v21.9
				H37V86.6L50.2,101V79.1h-3.3V92.6z M53.1,100.1h3.3v-9.5H64v-3h-7.6v-5.6h9.3v-2.9H53.1V100.1z M86.3,85.5
				c-0.5-1.2-1.3-2.3-2.2-3.3c-1-1-2.1-1.7-3.3-2.2c-1.3-0.5-2.7-0.8-4.1-0.8c-1.4,0-2.8,0.3-4.1,0.8c-1.3,0.5-2.4,1.3-3.3,2.2
				c-1,1-1.7,2.1-2.3,3.3c-0.5,1.3-0.8,2.7-0.8,4.1s0.3,2.8,0.8,4.1c0.5,1.3,1.3,2.4,2.3,3.3c1,1,2.1,1.7,3.3,2.3
				c1.3,0.5,2.6,0.8,4.1,0.8c1.4,0,2.8-0.3,4.1-0.8C81.9,98.7,83,98,84,97c1-1,1.7-2.1,2.2-3.3c0.5-1.3,0.8-2.7,0.8-4.1
				S86.8,86.8,86.3,85.5z M81.7,94.7c-1.4,1.4-3.2,2.1-5.1,2.1c-1.9,0-3.7-0.8-5.1-2.1c-1.4-1.4-2.1-3.2-2.1-5.1
				c0-1.9,0.8-3.7,2.1-5.1s3.2-2.1,5.1-2.1c1.9,0,3.7,0.8,5.1,2.1s2.1,3.2,2.1,5.1C83.8,91.5,83,93.3,81.7,94.7z"/>
		</g>
	</g>
</g>
</svg>
